mtllib Sieni.mtl
s 1
o 
g 
usemtl sieni_jalka
v 0.0207107 -0.05 0.2
v -2.16573e-15 -0.05 0
v 0.0207107 -0.05 0
vn 0 -1 0
vt 736.799 4
vt 736.385 -4.95358e-17
vt 736.799 -4.46781e-17
f 1/1/1 2/2/1 3/3/1 
v -0.0207107 -0.05 0
vt 736.385 -4.95358e-17
vt 736.799 4
vt 735.971 -5.43935e-17
f 2/4/1 1/5/1 4/6/1 
v -0.0207107 -0.05 0.2
vt 735.971 -5.43935e-17
vt 736.799 4
vt 735.971 4
f 4/7/1 1/8/1 5/9/1 
v 0.05 0.0207107 0
v 0.05 -0.0207107 0.2
v 0.05 -0.0207107 0
vn 1 0 0
vt 731.828 6.04028e-17
vt 731 4
vt 731 2.93886e-18
f 6/10/2 7/11/2 8/12/2 
v 0.05 0.0207107 0.2
vt 731 4
vt 731.828 6.04028e-17
vt 731.828 4
f 7/13/2 6/14/2 9/15/2 
v -0.05 0.0207107 0.2
v -0.0207107 0.05 0
v -0.05 0.0207107 0
vn -0.707107 0.707107 0
vt 734.314 4
vt 733.485 7.13862e-17
vt 734.314 2.38832e-17
f 10/16/3 11/17/3 12/18/3 
v -0.0207107 0.05 0.2
vt 733.485 7.13862e-17
vt 734.314 4
vt 733.485 4
f 11/19/3 10/20/3 13/21/3 
v -0.05 -0.0207107 0
v -0.05 -0.0207107 0.2
vn -1 6.97139e-14 0
vt 734.314 4
vt 735.142 -3.64618e-17
vt 735.142 4
f 10/22/4 14/23/4 15/24/4 
vt 735.142 -3.64618e-17
vt 734.314 4
vt 734.314 2.10022e-17
f 14/25/4 10/26/4 12/27/4 
vn 0.707107 -0.707107 0
vt 731 4
vt 730.172 -6.40005e-17
vt 731 -1.64975e-17
f 7/28/5 3/29/5 8/30/5 
vt 730.172 -6.40005e-17
vt 731 4
vt 730.172 4
f 3/31/5 7/32/5 1/33/5 
v 2.16573e-15 0.05 0
vn 0 1 0
vt 733.485 4
vt 733.071 8.83974e-17
vt 733.485 8.35397e-17
f 13/34/6 16/35/6 11/36/6 
v 0.0207107 0.05 0
vt 733.071 8.83974e-17
vt 733.485 4
vt 732.657 9.32551e-17
f 16/37/6 13/38/6 17/39/6 
v 0.0207107 0.05 0.2
vt 732.657 9.32551e-17
vt 733.485 4
vt 732.657 4
f 17/40/6 13/41/6 18/42/6 
vn -0.707107 -0.707107 0
vt 735.142 4
vt 735.971 -4.71547e-17
vt 735.971 4
f 15/43/7 4/44/7 5/45/7 
vt 735.971 -4.71547e-17
vt 735.142 4
vt 735.142 -1.33914e-17
f 4/46/7 15/47/7 14/48/7 
vn 0.707107 0.707107 0
vt 732.657 8.12993e-17
vt 731.828 4
vt 731.828 4.75359e-17
f 17/49/8 9/50/8 6/51/8 
vt 731.828 4
vt 732.657 8.12993e-17
vt 732.657 4
f 9/52/8 17/53/8 18/54/8 
usemtl sieni_hattu
v -0.0829331 0.200218 0.2
vn 0 0 -1
vt -5.08424 182.916
vt -5.24891 182.018
vt -5.24891 181.811
f 19/55/9 10/56/9 15/57/9 
v 0.0829331 0.200218 0.2
vt -5.24891 182.018
vt -5.08424 182.916
vt -5.91357 182.916
f 10/58/9 19/59/9 20/60/9 
vt -5.24891 182.018
vt -5.91357 182.916
vt -5.39536 182.165
f 10/61/9 20/62/9 13/63/9 
vt -5.39536 182.165
vt -5.91357 182.916
vt -5.60246 182.165
f 13/64/9 20/65/9 18/66/9 
vt -5.60246 182.165
vt -5.91357 182.916
vt -5.74891 182.018
f 18/67/9 20/68/9 9/69/9 
vt -5.74891 182.018
vt -5.91357 182.916
vt -5.74891 181.811
f 9/70/9 20/71/9 7/72/9 
v 0.0829331 -0.200218 0.2
vt -5.74891 181.811
vt -5.91357 182.916
vt -5.91357 180.914
f 7/73/9 20/74/9 21/75/9 
v 0.200218 -0.0829331 0.2
vt -5.91357 180.914
vt -5.91357 182.916
vt -6.5 181.5
f 21/76/9 20/77/9 22/78/9 
v 0.200218 0.0829331 0.2
vt -6.5 181.5
vt -5.91357 182.916
vt -6.5 182.329
f 22/79/9 20/80/9 23/81/9 
v -0.200218 0.0829331 0.2
v -0.0829331 -0.200218 0.2
v -0.200218 -0.0829331 0.2
vt -4.49782 182.329
vt -5.08424 180.914
vt -4.49782 181.5
f 24/82/9 25/83/9 26/84/9 
vt -5.08424 180.914
vt -4.49782 182.329
vt -5.08424 182.916
f 25/85/9 24/86/9 19/87/9 
vt -5.08424 180.914
vt -5.08424 182.916
vt -5.24891 181.811
f 25/88/9 19/89/9 15/90/9 
vt -5.08424 180.914
vt -5.24891 181.811
vt -5.91357 180.914
f 25/91/9 15/92/9 21/93/9 
vt -5.91357 180.914
vt -5.24891 181.811
vt -5.39536 181.665
f 21/94/9 15/95/9 5/96/9 
vt -5.91357 180.914
vt -5.39536 181.665
vt -5.60246 181.665
f 21/97/9 5/98/9 1/99/9 
vt -5.91357 180.914
vt -5.60246 181.665
vt -5.74891 181.811
f 21/100/9 1/101/9 7/102/9 
v 0.200218 -0.0829331 0.25
vt -6.75 181.5
vt -6.5 180.671
vt -6.5 181.5
f 27/103/5 21/104/5 22/105/5 
v 0.0829331 -0.200218 0.25
vt -6.5 180.671
vt -6.75 181.5
vt -6.75 180.671
f 21/106/5 27/107/5 28/108/5 
v -0.150304 -0.0622578 0.28
v -0.200218 0.0829331 0.25
v -0.200218 -0.0829331 0.25
vn -0.515142 2.00809e-14 0.857105
vt -7.04118 185.543
vt -6.75 184.817
vt -6.75 185.647
f 29/109/10 30/110/10 31/111/10 
v -0.150304 0.0622578 0.28
vt -6.75 184.817
vt -7.04118 185.543
vt -7.04118 184.921
f 30/112/10 29/113/10 32/114/10 
v 0.150304 0.0622578 0.28
v 0.0829331 0.200218 0.25
v 0.0622578 0.150304 0.28
vn 0.364261 0.364261 0.857105
vt -7.04118 182.433
vt -6.75 183.159
vt -7.04118 183.055
f 33/115/11 34/116/11 35/117/11 
v 0.200218 0.0829331 0.25
vt -6.75 183.159
vt -7.04118 182.433
vt -6.75 182.329
f 34/118/11 33/119/11 36/120/11 
v -0.0622578 0.150304 0.28
v -0.0829331 0.200218 0.25
vn -7.07014e-18 0.515142 0.857105
vt -7.04118 183.885
vt -6.75 183.159
vt -6.75 183.988
f 37/121/12 34/122/12 38/123/12 
vt -6.75 183.159
vt -7.04118 183.885
vt -7.04118 183.262
f 34/124/12 37/125/12 35/126/12 
vt -6.75 183.988
vt -6.5 183.159
vt -6.5 183.988
f 38/127/6 20/128/6 19/129/6 
vt -6.5 183.159
vt -6.75 183.988
vt -6.75 183.159
f 20/130/6 38/131/6 34/132/6 
vt -6.75 184.817
vt -6.5 183.988
vt -6.5 184.817
f 30/133/3 19/134/3 24/135/3 
vt -6.5 183.988
vt -6.75 184.817
vt -6.75 183.988
f 19/136/3 30/137/3 38/138/3 
vt -6.75 187.305
vt -6.5 186.476
vt -6.5 187.305
f 28/139/1 25/140/1 21/141/1 
v -0.0829331 -0.200218 0.25
vt -6.5 186.476
vt -6.75 187.305
vt -6.75 186.476
f 25/142/1 28/143/1 39/144/1 
vn 1 -3.4819e-14 0
vt -6.5 182.329
vt -6.75 181.5
vt -6.5 181.5
f 23/145/13 27/146/13 22/147/13 
vt -6.75 181.5
vt -6.5 182.329
vt -6.75 182.329
f 27/148/13 23/149/13 36/150/13 
vn -1 3.4819e-14 0
vt -6.75 184.817
vt -6.5 185.647
vt -6.75 185.647
f 30/151/14 26/152/14 31/153/14 
vt -6.5 185.647
vt -6.75 184.817
vt -6.5 184.817
f 26/154/14 30/155/14 24/156/14 
vn -0.707107 -0.707107 8.97667e-29
vt -6.75 185.647
vt -6.5 186.476
vt -6.75 186.476
f 31/157/15 25/158/15 39/159/15 
vt -6.5 186.476
vt -6.75 185.647
vt -6.5 185.647
f 25/160/15 31/161/15 26/162/15 
v -0.0622578 -0.150304 0.28
vn 0 0 1
vt -8.31129 180.997
vt -8.75152 182.06
vt -8.75152 181.437
f 40/163/16 32/164/16 29/165/16 
vt -8.75152 182.06
vt -8.31129 180.997
vt -8.31129 182.5
f 32/166/16 40/167/16 37/168/16 
v 0.0622578 -0.150304 0.28
vt -8.31129 182.5
vt -8.31129 180.997
vt -7.68871 180.997
f 37/169/16 40/170/16 41/171/16 
vt -8.31129 182.5
vt -7.68871 180.997
vt -7.68871 182.5
f 37/172/16 41/173/16 35/174/16 
v 0.150304 -0.0622578 0.28
vt -7.68871 182.5
vt -7.68871 180.997
vt -7.24848 181.437
f 35/175/16 41/176/16 42/177/16 
vt -7.68871 182.5
vt -7.24848 181.437
vt -7.24848 182.06
f 35/178/16 42/179/16 33/180/16 
vn -0.364261 0.364261 0.857105
vt -7.04118 184.714
vt -6.75 183.988
vt -6.75 184.817
f 32/181/17 38/182/17 30/183/17 
vt -6.75 183.988
vt -7.04118 184.714
vt -7.04118 184.091
f 38/184/17 32/185/17 37/186/17 
vt -6.5 183.159
vt -6.75 182.329
vt -6.5 182.329
f 20/187/8 36/188/8 23/189/8 
vt -6.75 182.329
vt -6.5 183.159
vt -6.75 183.159
f 36/190/8 20/191/8 34/192/8 
vn -0.364261 -0.364261 0.857105
vt -6.75 186.476
vt -7.04118 185.75
vt -6.75 185.647
f 39/193/18 29/194/18 31/195/18 
vt -7.04118 185.75
vt -6.75 186.476
vt -7.04118 186.373
f 29/196/18 39/197/18 40/198/18 
vn 0.515142 -2.00786e-14 0.857105
vt -6.75 181.5
vt -7.04118 182.226
vt -7.04118 181.603
f 27/199/19 33/200/19 42/201/19 
vt -7.04118 182.226
vt -6.75 181.5
vt -6.75 182.329
f 33/202/19 27/203/19 36/204/19 
vn 0.364261 -0.364261 0.857105
vt -6.75 180.671
vt -7.04118 181.397
vt -7.04118 180.774
f 28/205/20 42/206/20 41/207/20 
vt -7.04118 181.397
vt -6.75 180.671
vt -6.75 181.5
f 42/208/20 28/209/20 27/210/20 
vn 1.44023e-16 -0.515142 0.857105
vt -6.75 187.305
vt -7.04118 186.579
vt -6.75 186.476
f 28/211/21 40/212/21 39/213/21 
vt -7.04118 186.579
vt -6.75 187.305
vt -7.04118 187.202
f 40/214/21 28/215/21 41/216/21 
