mtllib C:/Users/User/3D Objects/muut/uv_test.mtl
s 1
o 
g 
usemtl cable_black1
v 0.0133808 0.0237273 3.60956e-16
v 0.0189471 -0.0162727 0.00964102
v 0.0133808 -0.0162727 3.60956e-16
vn 0.866025 -5.69987e-13 -0.5
vt -378.447 -52.6799
vt -378.402 -52.5199
vt -378.447 -52.5199
f 1/1/1 2/2/1 3/3/1 
v 0.0278146 0.0237273 0.025
vt -378.402 -52.5199
vt -378.447 -52.6799
vt -378.331 -52.6799
f 2/4/1 1/5/1 4/6/1 
v 0.0189471 0.0237273 0.00964102
vt -378.331 -52.6799
vt -378.447 -52.6799
vt -378.402 -52.6799
f 4/7/1 1/8/1 5/9/1 
v 0.0278146 -0.0162727 0.025
vt -378.331 -52.6799
vt -378.331 -52.5199
vt -378.402 -52.5199
f 4/10/1 6/11/1 2/12/1 
v 0.0189471 -0.0162727 0.040359
vn 0.866025 -6.40907e-13 0.5
vt -378.331 -52.6799
vt -378.26 -52.5199
vt -378.331 -52.5199
f 4/13/2 7/14/2 6/15/2 
v 0.0133808 0.0237273 0.05
v 0.0133808 -0.0162727 0.05
vt -378.26 -52.5199
vt -378.216 -52.6799
vt -378.216 -52.5199
f 7/16/2 8/17/2 9/18/2 
vt -378.216 -52.6799
vt -378.26 -52.5199
vt -378.331 -52.6799
f 8/19/2 7/20/2 4/21/2 
v 0.0189471 0.0237273 0.040359
vt -378.216 -52.6799
vt -378.331 -52.6799
vt -378.26 -52.6799
f 8/22/2 4/23/2 10/24/2 
v -0.0154867 0.0237273 0.05
v -0.0299204 -0.0162727 0.025
v -0.0154867 -0.0162727 0.05
vn -0.866025 5.69029e-13 0.5
vt -405.896 -47.72
vt -406.011 -47.88
vt -405.896 -47.88
f 11/25/3 12/26/3 13/27/3 
v -0.0299204 0.0237273 0.025
vt -406.011 -47.88
vt -405.896 -47.72
vt -406.011 -47.72
f 12/28/3 11/29/3 14/30/3 
v -0.0154867 0.0237273 0
v -0.0154867 -0.0162727 0
vn -0.866025 5.78734e-13 -0.5
vt -406.011 -47.88
vt -406.127 -47.72
vt -406.127 -47.88
f 12/31/4 15/32/4 16/33/4 
vt -406.127 -47.72
vt -406.011 -47.88
vt -406.011 -47.72
f 15/34/4 12/35/4 14/36/4 
v -0.00105293 -0.0162727 0.05
vn -2.50077e-14 2.0676e-26 1
vt -405.838 -47.88
vt -405.896 -47.72
vt -405.896 -47.88
f 17/37/5 11/38/5 13/39/5 
vt -405.896 -47.72
vt -405.838 -47.88
vt -405.78 -47.72
f 11/40/5 17/41/5 8/42/5 
vt -405.78 -47.72
vt -405.838 -47.88
vt -405.78 -47.88
f 8/43/5 17/44/5 9/45/5 
vn 1.25039e-14 -8.94203e-27 -1
vt -378.562 -52.6799
vt -378.447 -52.5199
vt -378.562 -52.5199
f 15/46/6 3/47/6 16/48/6 
vt -378.447 -52.5199
vt -378.562 -52.6799
vt -378.447 -52.6799
f 3/49/6 15/50/6 1/51/6 
usemtl chair_wheel
vn 9.62058e-13 1 1.65185e-14
vt 104.992 0.486363
vt 104.242 -0.013368
vt 104.742 -0.013368
f 14/52/7 1/53/7 15/54/7 
vt 104.242 -0.013368
vt 104.992 0.486363
vt 104.146 0.179349
f 1/55/7 14/56/7 5/57/7 
vt 104.146 0.179349
vt 104.992 0.486363
vt 103.992 0.486363
f 5/58/7 14/59/7 4/60/7 
vt 103.992 0.486363
vt 104.992 0.486363
vt 104.742 0.986094
f 4/61/7 14/62/7 11/63/7 
vt 103.992 0.486363
vt 104.742 0.986094
vt 104.146 0.793378
f 4/64/7 11/65/7 10/66/7 
vt 104.146 0.793378
vt 104.742 0.986094
vt 104.242 0.986094
f 10/67/7 11/68/7 8/69/7 
vn -4.21909e-13 -1 -3.41803e-14
vt -115.25 -1.48105e-13
vt -116 0.499731
vt -115.75 -1.55292e-13
f 3/70/8 12/71/8 16/72/8 
vt -116 0.499731
vt -115.25 -1.48105e-13
vt -115.154 0.192717
f 12/73/8 3/74/8 2/75/8 
vt -116 0.499731
vt -115.154 0.192717
vt -115 0.499731
f 12/76/8 2/77/8 6/78/8 
vt -116 0.499731
vt -115 0.499731
vt -115.75 0.999462
f 12/79/8 6/80/8 13/81/8 
vt -115.75 0.999462
vt -115 0.499731
vt -115.154 0.806746
f 13/82/8 6/83/8 7/84/8 
vt -115.75 0.999462
vt -115.154 0.806746
vt -115.5 0.999462
f 13/85/8 7/86/8 17/87/8 
vt -115.5 0.999462
vt -115.154 0.806746
vt -115.25 0.999462
f 17/88/8 7/89/8 9/90/8 
